<svg xmlns="http://www.w3.org/2000/svg" viewBox="0 0 68.52 68.52">
    <title>Asset 2</title>
    <g id="Layer_2" data-name="Layer 2">
        <g id="Layer_1-2" data-name="Layer 1">
            <g id="icon">
                <path class="cls-1"
                    d="M10.35,25.69,28.72,7.31a4.29,4.29,0,0,0-6.06-6.06L1.25,22.66a4.3,4.3,0,0,0,0,6.06l21.41,21.4a4.28,4.28,0,0,0,6.06-6Z" />
                <path class="cls-1"
                    d="M64.24,68.52A4.28,4.28,0,0,1,60,64.23V38.54A8.58,8.58,0,0,0,51.39,30H30a4.28,4.28,0,0,1,0-8.56H51.39A17.14,17.14,0,0,1,68.52,38.54V64.23A4.28,4.28,0,0,1,64.24,68.52Z" />
            </g>
        </g>
    </g>
</svg>