<svg xmlns="http://www.w3.org/2000/svg" viewBox="0 0 150.88 154.4">

    <title>Asset 4</title>
    <g id="Layer_2" data-name="Layer 2">
        <g id="Layer_1-2" data-name="Layer 1">
            <path class="cls-1"
                d="M24.09,5a2,2,0,0,0-2.86,0L.59,25.65a2,2,0,0,0,0,2.87L12.78,40.71a2,2,0,0,0,2.87,0L36.28,20.08a2,2,0,0,0,0-2.87ZM150.82,128c-1.08-14.59-13.9-22.79-21.57-36.8a3.79,3.79,0,0,0-6.68,0c-7.67,14-20.5,22.21-21.57,36.8s11,26.45,24.91,26.45S151.89,142.55,150.82,128Zm-30.34,9a7.63,7.63,0,1,1,7.63-7.63A7.64,7.64,0,0,1,120.48,137Z" />
            <path class="cls-1"
                d="M111,0H79.74A17.63,17.63,0,0,0,67.33,5.1L16.38,55.5A17.67,17.67,0,0,0,11.15,68v5a6,6,0,0,0,0,12v.07h7.48a6.08,6.08,0,0,1,0,12.15H11.15v.06a6,6,0,0,0,0,12v.07h7.48a6.08,6.08,0,0,1,0,12.15H11.15v.06a6,6,0,0,0,.14,12,17.58,17.58,0,0,0,17.5,16.26H97.42a34,34,0,0,1-6.52-22.73c.91-12.37,7.9-21,14.06-28.7a83.72,83.72,0,0,0,8.72-12.23,13.69,13.69,0,0,1,15-7V17.64A17.64,17.64,0,0,0,111,0Zm1.43,32.42a4,4,0,0,1-4,4H64.67A2,2,0,0,1,63.24,33L78.85,17.4a4.07,4.07,0,0,1,2.87-1.19h26.69a4,4,0,0,1,4,4.05Z" />
        </g>
    </g>
</svg>