<svg xmlns="http://www.w3.org/2000/svg" viewBox="0 0 47.82 83.4">

    <title>Asset 2</title>
    <g id="Layer_2" data-name="Layer 2">
        <g id="Layer_1-2" data-name="Layer 1">
            <path class="cls-1"
                d="M39.88,53.79V43.26c0-23.39-9.91-37.54-14-42.43A2.39,2.39,0,0,0,24,0a2.26,2.26,0,0,0-1.78.79C18,5.69,7.94,19.83,7.94,43.26V53.79L6,55.07A13.57,13.57,0,0,0,0,66.32V78.86a2.07,2.07,0,0,0,1.05,1.78,2.06,2.06,0,0,0,2.1-.11l6.29-4.19a10.8,10.8,0,0,1,6-1.81h.7v6.28a2.58,2.58,0,0,0,2.59,2.59H29.1a2.58,2.58,0,0,0,2.58-2.59V74.53h.73a10.67,10.67,0,0,1,6,1.81l6.3,4.19a2,2,0,0,0,2,.11,2,2,0,0,0,1.09-1.78V66.32a13.67,13.67,0,0,0-6-11.25Zm-16-25.69a6,6,0,1,1-6,6,6,6,0,0,1,6-6Zm0-15.49a6,6,0,1,1-6,6,6,6,0,0,1,6-6Z" />
        </g>
    </g>
</svg>