<svg xmlns="http://www.w3.org/2000/svg" viewBox="0 0 70.78 74.95">

    <title>Asset 4</title>
    <g id="Layer_2" data-name="Layer 2">
        <g id="Layer_1-2" data-name="Layer 1">
            <g id="icon">
                <path class="cls-1"
                    d="M54.13,75H37.47a4.17,4.17,0,0,1,0-8.33H54.13a8.33,8.33,0,0,0,8.32-8.33V16.65a8.33,8.33,0,0,0-8.32-8.32H37.47a4.17,4.17,0,0,1,0-8.33H54.13A16.67,16.67,0,0,1,70.78,16.65V58.29A16.68,16.68,0,0,1,54.13,75Z" />
                <path class="cls-1"
                    d="M37.47,54.13A4.17,4.17,0,0,1,34.53,47l9.55-9.55-9.55-9.54A4.16,4.16,0,0,1,40.42,22L52.91,34.53a4.18,4.18,0,0,1,0,5.89L40.42,52.91A4.18,4.18,0,0,1,37.47,54.13Z" />
                <path class="cls-1"
                    d="M41.64,41.59H4.16a4.17,4.17,0,0,1,0-8.33H41.64a4.17,4.17,0,0,1,0,8.33Z" />
            </g>
        </g>
    </g>
</svg>