<svg xmlns="http://www.w3.org/2000/svg" viewBox="0 0 52.92 43.46">

    <title>Asset 2</title>
    <g id="Layer_2" data-name="Layer 2">
        <g id="Layer_1-2" data-name="Layer 1">
            <path class="cls-1"
                d="M37.16,6.48l-.82-1.56A5.43,5.43,0,0,0,31.52,2H21.4a5.43,5.43,0,0,0-4.82,2.92l-.82,1.56a5.42,5.42,0,0,1-4.82,2.93H7.44A5.43,5.43,0,0,0,2,14.84V36a5.43,5.43,0,0,0,5.44,5.43H45.49A5.43,5.43,0,0,0,50.92,36V14.84a5.43,5.43,0,0,0-5.43-5.43H42A5.42,5.42,0,0,1,37.16,6.48Z" />
            <circle class="cls-1" cx="26.46" cy="23.6" r="9.1"
                transform="translate(-7.02 11.92) rotate(-22.5)" />
        </g>
    </g>
</svg>