<svg xmlns="http://www.w3.org/2000/svg" viewBox="0 0 172.3 167.42">

    <title>Asset 2</title>
    <g id="Layer_2" data-name="Layer 2">
        <g id="Layer_1-2" data-name="Layer 1">
            <path class="cls-1"
                d="M130.83,25.66a12.11,12.11,0,0,0,0-24.21c-3.26,0-16.56,2.88-29.34,5.82a11.25,11.25,0,0,0-21,0C67.66,4.33,54.36,1.45,51.11,1.45a12.11,12.11,0,1,0,0,24.21c3.19,0,16-2.76,28.56-5.64V33.68c-10.39,2-19.27,7.47-24.94,14.92a11.51,11.51,0,0,1-7.24,4.48c-25.77,4.3-42.38,12.5-42.38,41.1v5.23a2.26,2.26,0,0,0,2.26,2.26H39a2.26,2.26,0,0,0,2.26-2.26V94.18c0-6.42,2.44-8.13,5.64-8.51,3.9-.46,7.65,1.41,10.36,4.26C64.71,97.77,76,102.8,88.71,102.8a44,44,0,0,0,28.44-10,20.15,20.15,0,0,1,13-4.66h5.66a2.26,2.26,0,0,0,2.26-2.26V54.22A2.27,2.27,0,0,0,135.85,52h-.8a21.56,21.56,0,0,1-15.32-6.78,41.34,41.34,0,0,0-17.47-10.41V20C114.8,22.9,127.64,25.66,130.83,25.66Z" />
            <path class="cls-1"
                d="M23.73,114.41a3.18,3.18,0,0,0-5.6,0C11.7,126.15,1,133,.06,145.25s9.18,22.17,20.87,22.17,21.77-9.94,20.87-22.17S30.15,126.15,23.73,114.41Zm-8.25,42.2a6.87,6.87,0,1,1,6.86-6.87A6.87,6.87,0,0,1,15.48,156.61ZM167.78,33.89H154.23a4.52,4.52,0,0,0-4.52,4.52V97.15a4.52,4.52,0,0,0,4.52,4.52h13.55a4.52,4.52,0,0,0,4.52-4.52V38.41A4.52,4.52,0,0,0,167.78,33.89Z" />
        </g>
    </g>
</svg>