<svg xmlns="http://www.w3.org/2000/svg" viewBox="0 0 156.79 163.2">

    <title>Asset 3</title>
    <g id="Layer_2" data-name="Layer 2">
        <g id="Layer_1-2" data-name="Layer 1">
            <path class="cls-1"
                d="M124,147.43a15.32,15.32,0,0,1-15.09-13.08L107.24,123A47.64,47.64,0,0,1,42,115.86l2.9-1.67a2.18,2.18,0,0,0-.27-3.91L15.39,98.55a2.19,2.19,0,0,0-3,1.72L8,131.47a2.17,2.17,0,0,0,3.24,2.19l4.12-2.37a78.13,78.13,0,0,0,110.26,16C125,147.33,124.5,147.43,124,147.43Z" />
            <path class="cls-1"
                d="M98,19.94,73.21.47a2.18,2.18,0,0,0-3.53,1.71V7A78.34,78.34,0,0,0,0,84.81a76.16,76.16,0,0,0,.66,9.72,15.29,15.29,0,0,1,13.92-9.2h0a15.1,15.1,0,0,1,5.67,1.1l10.64,4.26a45.72,45.72,0,0,1-.4-5.88A47.89,47.89,0,0,1,69.68,37.73v3.4a2.18,2.18,0,0,0,3.53,1.71L98,23.37A2.18,2.18,0,0,0,98,19.94Zm52.17,96.24a77.43,77.43,0,0,0,6.63-31.37,78.27,78.27,0,0,0-47.85-72.07,15.12,15.12,0,0,1-2.88,20.9l-9,7.08A47.87,47.87,0,0,1,126.3,84.81a47.25,47.25,0,0,1-2.81,16l-2.92-1.68a2.18,2.18,0,0,0-3.24,2.2l4.47,31.2a2.19,2.19,0,0,0,3,1.71L154,122.48a2.18,2.18,0,0,0,.28-3.91Z" />
        </g>
    </g>
</svg>