<svg xmlns="http://www.w3.org/2000/svg" viewBox="0 0 158.95 151.24">

    <title>Asset 5</title>
    <g id="Layer_2" data-name="Layer 2">
        <g id="Layer_1-2" data-name="Layer 1">
            <path class="cls-1"
                d="M45.68,77.17a9.24,9.24,0,0,0-13.7.7c-3.06,3.74-2.41,9.32,1,12.73l10.15,10.15A5.13,5.13,0,0,1,35.89,108L26,98.14a20.86,20.86,0,0,1-6.12-14L20,60.2a10,10,0,0,0-11-10c-5.2.53-9,5.29-9,10.52V85.4a24,24,0,0,0,5.66,15.48l22.45,26.57a2,2,0,0,0,1.53.71l41,.06a2,2,0,0,0,2-2V114.11a24,24,0,0,0-7-17ZM150,50.25a10,10,0,0,0-11,10L139,84.14a20.86,20.86,0,0,1-6.12,14L123.06,108a5.13,5.13,0,0,1-7.25-7.25L126,90.6c3.42-3.41,4.07-9,1-12.73a9.25,9.25,0,0,0-13.71-.7l-20,20a24,24,0,0,0-7,17v12.11a2,2,0,0,0,2,2l41.05-.06a2,2,0,0,0,1.52-.71l22.45-26.57A24,24,0,0,0,159,85.4V60.77C159,55.54,155.19,50.78,150,50.25Z" />
            <path class="cls-1"
                d="M71.76,139.25H30.71a2,2,0,0,0-2,2v8a2,2,0,0,0,2,2H71.76a2,2,0,0,0,2-2v-8A2,2,0,0,0,71.76,139.25Zm32.81-98.57C103.45,25.39,90,16.79,82,2.09a4,4,0,0,0-7,0c-8,14.7-21.5,23.3-22.62,38.59S63.83,68.42,78.46,68.42,105.7,56,104.57,40.68ZM70.79,50.42a7.53,7.53,0,1,1,7.53-7.53A7.53,7.53,0,0,1,70.79,50.42Zm57.45,88.83h-41a2,2,0,0,0-2,2v8a2,2,0,0,0,2,2h41a2,2,0,0,0,2-2v-8A2,2,0,0,0,128.24,139.25Z" />
        </g>
    </g>
</svg>