<svg xmlns="http://www.w3.org/2000/svg" viewBox="0 0 78.85 88.75">

    <title>Asset 4</title>
    <g id="Layer_2" data-name="Layer 2">
        <g id="Layer_1-2" data-name="Layer 1">
            <path class="cls-1"
                d="M22,36.18c4.18,10,12.16,15.36,17.47,15.36S52,46.31,56.22,36.48a45.49,45.49,0,0,0,2.54-8.41,33.56,33.56,0,0,0,1.08-9.26C59.84,8.61,50.7,0,39.42,0S19,8.61,19,18.81a45.58,45.58,0,0,0,.47,6.92A41,41,0,0,0,22,36.18Z" />
            <path class="cls-1"
                d="M75.51,65.25C71.43,60.89,60,62,54.29,59c-2.52,4.71-2.55,12.46-6.74,12.46a3.69,3.69,0,0,1-.56,0c-6.3-1-3.15-17-7.57-17s-1.26,16.08-7.56,17a3.69,3.69,0,0,1-.56,0c-4.19,0-4.22-7.75-6.74-12.46-5.67,3-17.14,1.9-21.2,6.26C1.15,67.61,0,82.25,0,88.75H78.85C78.85,82.25,77.71,67.61,75.51,65.25Z" />
        </g>
    </g>
</svg>